<?xml version="1.0" encoding="utf-8"?>
<!-- Generator: Adobe Illustrator 16.0.0, SVG Export Plug-In . SVG Version: 6.00 Build 0)  -->
<!DOCTYPE svg PUBLIC "-//W3C//DTD SVG 1.1 Tiny//EN" "http://www.w3.org/Graphics/SVG/1.1/DTD/svg11-tiny.dtd">
<svg version="1.1" baseProfile="tiny" id="Layer_1" xmlns="http://www.w3.org/2000/svg" xmlns:xlink="http://www.w3.org/1999/xlink"
	 x="0px" y="0px" width="300px" height="389px" viewBox="3670 0 300 389" xml:space="preserve">
<g id="BjhhsL_1_">
	<g>
		<path fill="#FFFFFF" d="M3824.746,34.092c-1.479,1.307-2.212,3.083-1.592,4.142c0.695,1.187,1.518,2.312,2.386,3.381
			c2.235,2.752,4.623,5.386,6.763,8.208c1.857,2.449,3.477,5.078,5.161,7.653c0.791,1.209,1.42,2.528,2.244,3.713
			c1.001,1.44,2.16,2.769,3.196,4.185c2.074,2.833,3.503,6.364,7.535,6.72c-0.091,0.834-0.406,1.602-0.201,2.187
			c1.312,3.75,1.696,7.873,4.5,11.039c1.322,1.494,1.923,3.645,4.095,4.314c-0.74,1.625-0.747,2.265-0.172,3.983
			c1.08,3.225,1.755,6.522,2.023,9.926c0.217,2.751,0.768,5.476,1.055,8.224c0.192,1.854,1.005,3.68,0.272,5.596
			c-2.03,5.306-4.111,10.595-6.012,15.945c-0.76,2.139-1.889,3.644-4.041,4.511c-1.999,0.806-4.033,1.688-5.778,2.923
			c-2.983,2.109-5.762,4.51-8.599,6.822c-0.271,0.223-0.516,0.703-0.486,1.039c0.132,1.507-0.002,3.082,1.035,4.393
			c2.323,2.936,4.637,5.878,6.915,8.847c0.379,0.493,0.657,1.108,0.822,1.709c0.322,1.178,1.176,1.787,2.325,1.713
			c0.589-0.038,1.311,0.05,1.776,0.367c2.006,1.37,3.956,2.824,5.895,4.291c1.535,1.163,3.102,2.157,5.158,1.905
			c0.205-0.025,0.53,0.146,0.648,0.326c1.483,2.267,3.825,4.07,3.668,7.215c-0.113,2.29,0.474,4.731-0.135,6.854
			c-1.025,3.575-1.788,7.428-4.914,10.045c-1.526,1.279-3.011,2.61-4.289,3.725c-0.159-3.958-2.278-5.576-6.493-4.567
			c-0.233,0.057-0.576-0.038-0.774-0.188c-0.98-0.748-1.913-1.56-2.895-2.305c-0.923-0.701-1.865-0.957-3.087-0.549
			c-1.15,0.386-2.308,0.803-3.69,0.421c-1.403-0.388-2.936-0.688-4.376,0.454c-1.516,1.203-3.3,2.062-4.874,3.201
			c-1.105,0.8-2.132,0.822-3.236,0.275c-0.446-2.666,0.634-5.456-0.95-8.013c0.164-0.09,0.358-0.182,0.54-0.295
			c1.531-0.964,2.214-2.559,1.803-4.197c-0.42-1.672-1.556-2.504-3.461-2.748c-2.314-0.296-4.626-0.647-6.918-1.081
			c-1.883-0.354-3.664-0.37-5.386,0.623c-0.838,0.483-1.769,0.801-2.628,1.251c-1.81,0.945-3.614,1.904-5.385,2.92
			c-0.35,0.2-0.583,0.655-0.796,1.034c-1.336,2.379-2.672,4.758-3.963,7.161c-0.558,1.037-1.328,2.099-1.442,3.208
			c-0.29,2.804-0.229,5.642-0.392,8.462c-0.03,0.533-0.309,1.195-0.698,1.543c-1.877,1.673-3.841,3.245-5.753,4.879
			c-1.358,1.161-2.927,1.672-4.682,1.956c-0.84,0.135-1.953,0.774-2.27,1.486c-0.623,1.399-0.834,2.999-1.113,4.534
			c-0.573,3.164-0.621,6.514-1.738,9.467c-1.235,3.268-1.864,6.906-4.673,9.531c-1.826,1.708-3.078,4.024-4.875,5.772
			c-2.455,2.389-5.203,4.475-7.788,6.733c-2.19,1.915-4.284,3.939-6.494,5.829c-5.325,4.554-11.195,8.317-17.456,11.422
			c-2.863,1.419-5.934,2.444-8.958,3.508c-3.198,1.124-6.462,2.059-9.675,3.142c-0.491,0.166-0.99,0.609-1.262,1.06
			c-0.746,1.239-1.282,2.607-2.067,3.817c-1.345,2.068-2.788,4.074-4.238,6.071c-2.887,3.969-4.914,8.53-8.578,11.973
			c-3.108,2.92-5.977,6.095-9.027,9.079c-1.92,1.878-3.998,3.594-5.966,5.425c-0.396,0.368-0.772,0.894-0.891,1.407
			c-1.136,4.995-2.265,9.991-3.275,15.011c-0.254,1.261,0.071,2.419,1.297,3.371c1.127,0.875,2.573,1.763,2.116,3.741
			c-0.656,2.839,1.393,4.347,3.394,5.356c2.782,1.406,5.818,2.309,8.751,3.41c0.82,0.307,1.68,0.836,2.488,0.78
			c2.116-0.145,4.261-0.248,6.176-1.473c1.202-0.769,1.835-0.436,2.348,0.847c0.956,2.39,3.77,3.994,6.286,3.576
			c0.867-0.143,1.73-0.396,2.6-0.42c0.477-0.015,1.033,0.249,1.435,0.549c1.362,1.019,2.622,2.176,4.012,3.152
			c2.192,1.542,4.81,1.521,7.337,1.823c2.221,0.266,4.452,0.517,6.643,0.954c2.956,0.591,5.808,0.934,8.37-1.187
			c0.641-0.53,1.405-0.908,2.121-1.342c3.273-1.982,6.504-4.041,9.841-5.906c1.753-0.979,3.269-2.548,5.545-2.473
			c0.448,0.016,0.934-0.565,1.366-0.914c0.26-0.211,0.404-0.595,0.684-0.749c1.694-0.932,3.438-1.772,5.116-2.731
			c2.147-1.228,4.622-2.121,5.439-4.853c0.162-0.545,0.257-1.126,0.508-1.625c1.19-2.355,0.578-5.071-2.078-7.242
			c1.421-1.25,3.045-2.3,4.359-3.65c1.305-1.343,2.565-2.862,3.357-4.534c0.891-1.88,0.997-4.13,1.875-6.019
			c1.121-2.414,0.354-4.431-0.559-6.567c-0.226-0.531-0.272-1.188-0.228-1.773c0.074-0.962,0.238-1.925,0.456-2.865
			c0.45-1.944,0.192-3.998,1.865-5.694c2.857-2.899,5.092-6.401,8.485-8.799c0.563-0.397,0.986-1.005,1.567-1.365
			c2.843-1.758,5.737-3.433,8.573-5.202c2.014-1.256,4.052-2.217,6.538-2.022c1.893,0.147,3.805,0.031,5.707,0.033
			c3.126,0.005,5.905-2.122,6.727-5.149c0.819-3.016-1.113-6.236-4.091-6.475c-1.096-0.086-1.771-0.532-2.475-1.186
			c-1.043-0.97-1.025-4.307,0.093-5.201c1.402-1.119,2.879-2.142,4.3-3.238c1.98-1.529,3.847-3.228,5.927-4.602
			c3.032-2.003,4.914-4.694,5.885-8.16c0.474-1.689,0.909-3.536,1.92-4.896c1.854-2.493,4.121-4.678,6.212-6.995
			c0.666-0.737,1.384-1.44,1.97-2.239c1.33-1.814,2.504-3.75,3.906-5.505c1.701-2.131,1.878-4.322,0.877-6.777
			c-0.847-2.075-1.586-4.193-2.308-6.315c-0.105-0.313,0.027-0.938,0.267-1.104c1.867-1.278,3.788-2.479,5.723-3.726
			c0.056,0.172,0.169,0.344,0.15,0.5c-0.259,2.22,0.905,3.354,2.898,3.922c1.003,0.287,1.981,0.666,2.968,1.014
			c1.224,0.43,2.416,1.01,3.676,1.252c0.721,0.138,0.954,0.406,1.302,0.982c1.061,1.756,2.262,3.369,4.68,3.352
			c1.403-0.012,2.814,0.159,4.212,0.338c2.465,0.313,4.792,0.226,6.921-1.35c1.233-0.91,2.649-1.576,3.991-2.337
			c2.187-1.241,4.091-2.745,5.131-5.143c0.438-1.009,0.938-1.999,1.5-2.942c1.936-3.247,3.877-6.491,5.889-9.691
			c0.804-1.278,1.649-2.599,2.746-3.607c0.841-0.772,2.061-1.234,3.19-1.569c1.557-0.462,2.033-1.694,2.279-2.969
			c0.222-1.149,0.252-2.427-0.016-3.558c-0.381-1.615,0.193-2.748,1.089-3.984c2.472-3.411,5.21-6.689,6.028-11.023
			c0.208-1.107,0.705-2.163,0.896-3.272c0.362-2.099-0.604-3.853-1.642-5.575c-0.662-1.097-0.482-2.044,0.491-2.779
			c1.299-0.98,2.575-2.003,3.951-2.864c1.056-0.66,2.201-1.31,3.395-1.581c1.791-0.406,3.654-0.512,5.494-0.661
			c0.357-0.029,0.798,0.264,1.11,0.517c1.55,1.255,3.032,2.556,5.258,2.402c1.809-0.126,3.806-1.535,4.073-3.321
			c0.3-1.997,0.378-4.03,0.494-6.052c0.097-1.717,0.153-3.342,2.052-4.259c3.141-1.517,4.575-4.233,5.365-7.556
			c0.587-2.47,0.515-4.854,0.392-7.329c-0.092-1.862,0.044-3.836,0.596-5.597c0.468-1.496,1.64-2.785,2.563-4.122
			c1.766-2.561,2.501-5.247,1.137-8.221c-0.177-0.386-0.456-0.766-0.78-1.037c-1.508-1.261-3.152-2.378-4.552-3.748
			c-1.606-1.572-3.476-1.812-5.472-1.442c-3.037,0.561-6.02,1.463-9.073,1.878c-2.985,0.405-4.095,1.104-5.008,3.977
			c-0.137,0.43-0.642,0.932-1.069,1.045c-1.659,0.434-3.345,0.806-5.043,1.031c-0.923,0.121-1.962,0.098-2.823-0.209
			c-3.698-1.313-7.352-2.756-11.02-4.152c-2.35-0.894-4.724-1.732-7.028-2.729c-0.512-0.222-1-0.964-1.121-1.545
			c-0.653-3.152-1.084-6.354-1.797-9.491c-0.674-2.968-1.678-5.859-2.391-8.821c-0.373-1.553-1.268-2.604-2.651-3.052
			c-1.924-0.623-2.817-2.058-3.721-3.665c-1.143-2.036-2.007-4.223-4.648-5.12c-2.026-0.688-4.688-0.389-5.928,1.356
			c-0.979,1.379-1.271,2.88-1.021,4.522c0.152,1.001,0.334,2.001,0.437,3.007c0.117,1.144,0.161,2.295,0.237,3.443
			c-1.417-1.189-2.8-2.344-3.595-3.816c-0.803-1.485-1.03-3.284-1.483-4.952c-0.031-0.116,0.129-0.327,0.251-0.434
			c1.837-1.6,1.321-3.695,1.06-5.651c-0.097-0.725-0.743-1.454-1.3-2.025c-1.562-1.606-3.216-3.124-4.814-4.697
			c-0.166-0.163-0.169-0.481-0.299-0.695c-0.352-0.581-0.66-1.207-1.114-1.697c-0.588-0.638-0.986-1.134-0.271-1.986
			c1.46-1.738,1.626-3.64,0.864-5.821c-0.591-1.688-0.683-3.546-1.083-5.308c-0.257-1.134-0.546-2.292-1.038-3.336
			c-0.978-2.071-2.172-4.041-3.146-6.113c-0.544-1.159-1.414-1.697-2.56-1.814c-0.981-0.099-1.983,0.012-2.978,0.015
			c-0.203,0-0.465,0.004-0.601-0.11c-1.111-0.938-2.374-1.769-3.249-2.896c-0.961-1.239-2.226-1.743-3.572-2.032
			c-3.015-0.65-6.074-1.088-9.098-1.705c-0.671-0.136-1.434-0.516-1.861-1.028c-2.14-2.562-4.189-5.199-6.246-7.83
			c-0.234-0.299-0.348-0.706-0.468-1.079c-0.539-1.679-1.575-2.486-3.321-2.499c-2.521-0.017-5.052-0.11-7.564,0.049
			c-0.91,0.059-2.043,0.524-2.611,1.197c-1.029,1.217-0.436,4.144,0.77,5.242C3819.015,25.85,3822.065,29.762,3824.746,34.092z
			 M3712.97,370.767c0.003-0.038,0.008-0.077,0.012-0.116c0.531,0,1.062,0.021,1.593-0.003c1.768-0.081,3.534-0.15,4.872-1.585
			c0.832-0.892,1.839-1.243,3.092-1.465c1.547-0.273,3.019-1.102,4.448-1.834c0.483-0.247,0.965-0.893,1.067-1.428
			c0.514-2.68,0.819-5.354-1.807-7.296c-0.196-0.145-0.095-0.648-0.205-0.96c-0.517-1.449-0.423-3.281-2.151-4.021
			c-2.108-0.901-4.214-1.901-6.424-2.442c-2.405-0.589-5.314,0.669-5.264,3.912c0.021,1.41,0.13,2.82,0.097,4.228
			c-0.012,0.468-0.209,1.081-0.544,1.366c-2.451,2.091-3.181,5.109-4.262,7.905c-0.668,1.729,0.271,3.089,2.062,3.378
			C3710.685,370.589,3711.831,370.65,3712.97,370.767z"/>
		<path fill-rule="evenodd" d="M3824.746,34.092c-2.681-4.33-5.731-8.242-9.442-11.622c-1.205-1.099-1.799-4.025-0.77-5.242
			c0.568-0.672,1.701-1.138,2.611-1.197c2.513-0.159,5.043-0.066,7.564-0.049c1.746,0.012,2.782,0.819,3.321,2.499
			c0.12,0.373,0.233,0.779,0.468,1.079c2.057,2.63,4.106,5.268,6.246,7.83c0.428,0.512,1.19,0.892,1.861,1.028
			c3.023,0.617,6.083,1.055,9.098,1.705c1.347,0.29,2.611,0.793,3.572,2.032c0.875,1.127,2.138,1.959,3.249,2.896
			c0.136,0.114,0.397,0.11,0.601,0.11c0.994-0.003,1.996-0.114,2.978-0.015c1.146,0.117,2.016,0.655,2.56,1.814
			c0.974,2.072,2.168,4.042,3.146,6.113c0.492,1.044,0.781,2.202,1.038,3.336c0.4,1.762,0.492,3.62,1.083,5.308
			c0.762,2.181,0.596,4.083-0.864,5.821c-0.716,0.852-0.317,1.348,0.271,1.986c0.454,0.491,0.763,1.117,1.114,1.697
			c0.13,0.214,0.133,0.532,0.299,0.695c1.599,1.573,3.252,3.091,4.814,4.697c0.557,0.571,1.203,1.3,1.3,2.025
			c0.262,1.956,0.777,4.051-1.06,5.651c-0.122,0.107-0.282,0.318-0.251,0.434c0.453,1.668,0.681,3.467,1.483,4.952
			c0.795,1.473,2.178,2.627,3.595,3.816c-0.076-1.148-0.12-2.299-0.237-3.443c-0.103-1.006-0.284-2.006-0.437-3.007
			c-0.249-1.642,0.042-3.143,1.021-4.522c1.239-1.745,3.901-2.044,5.928-1.356c2.642,0.897,3.506,3.084,4.648,5.12
			c0.903,1.606,1.797,3.042,3.721,3.665c1.384,0.448,2.278,1.499,2.651,3.052c0.713,2.961,1.717,5.853,2.391,8.821
			c0.713,3.137,1.144,6.338,1.797,9.491c0.121,0.581,0.609,1.323,1.121,1.545c2.305,0.997,4.679,1.834,7.028,2.729
			c3.668,1.396,7.321,2.839,11.02,4.152c0.861,0.307,1.9,0.33,2.823,0.209c1.698-0.226,3.384-0.598,5.043-1.031
			c0.428-0.113,0.933-0.615,1.069-1.045c0.913-2.873,2.022-3.572,5.008-3.977c3.054-0.415,6.036-1.317,9.073-1.878
			c1.996-0.37,3.865-0.129,5.472,1.442c1.399,1.37,3.044,2.486,4.552,3.748c0.324,0.271,0.604,0.651,0.78,1.037
			c1.364,2.974,0.629,5.66-1.137,8.221c-0.924,1.337-2.096,2.626-2.563,4.122c-0.552,1.761-0.688,3.734-0.596,5.597
			c0.123,2.475,0.195,4.859-0.392,7.329c-0.79,3.322-2.225,6.039-5.365,7.556c-1.898,0.917-1.955,2.542-2.052,4.259
			c-0.116,2.021-0.194,4.055-0.494,6.052c-0.268,1.786-2.265,3.195-4.073,3.321c-2.226,0.153-3.708-1.147-5.258-2.402
			c-0.312-0.253-0.753-0.546-1.11-0.517c-1.84,0.149-3.703,0.255-5.494,0.661c-1.193,0.271-2.339,0.921-3.395,1.581
			c-1.376,0.861-2.652,1.884-3.951,2.864c-0.974,0.735-1.153,1.683-0.491,2.779c1.038,1.723,2.004,3.477,1.642,5.575
			c-0.191,1.109-0.688,2.165-0.896,3.272c-0.818,4.334-3.557,7.612-6.028,11.023c-0.896,1.236-1.47,2.369-1.089,3.984
			c0.268,1.131,0.237,2.408,0.016,3.558c-0.246,1.274-0.723,2.507-2.279,2.969c-1.13,0.335-2.35,0.797-3.19,1.569
			c-1.097,1.009-1.942,2.329-2.746,3.607c-2.012,3.2-3.953,6.444-5.889,9.691c-0.562,0.943-1.062,1.934-1.5,2.942
			c-1.04,2.397-2.944,3.901-5.131,5.143c-1.342,0.761-2.758,1.427-3.991,2.337c-2.129,1.575-4.456,1.663-6.921,1.35
			c-1.397-0.179-2.809-0.35-4.212-0.338c-2.418,0.018-3.619-1.596-4.68-3.352c-0.348-0.576-0.581-0.845-1.302-0.982
			c-1.26-0.242-2.452-0.822-3.676-1.252c-0.986-0.348-1.965-0.727-2.968-1.014c-1.993-0.567-3.157-1.702-2.898-3.922
			c0.019-0.156-0.095-0.328-0.15-0.5c-1.935,1.246-3.855,2.447-5.723,3.726c-0.239,0.165-0.372,0.79-0.267,1.104
			c0.722,2.122,1.461,4.24,2.308,6.315c1.001,2.455,0.824,4.646-0.877,6.777c-1.402,1.755-2.576,3.69-3.906,5.505
			c-0.586,0.799-1.304,1.502-1.97,2.239c-2.091,2.317-4.358,4.502-6.212,6.995c-1.011,1.359-1.446,3.206-1.92,4.896
			c-0.971,3.466-2.853,6.157-5.885,8.16c-2.08,1.374-3.946,3.072-5.927,4.602c-1.421,1.097-2.897,2.119-4.3,3.238
			c-1.118,0.895-1.136,4.231-0.093,5.201c0.703,0.653,1.379,1.1,2.475,1.186c2.978,0.238,4.91,3.459,4.091,6.475
			c-0.821,3.027-3.601,5.154-6.727,5.149c-1.902-0.002-3.814,0.114-5.707-0.033c-2.486-0.194-4.524,0.767-6.538,2.022
			c-2.836,1.77-5.73,3.444-8.573,5.202c-0.581,0.36-1.004,0.968-1.567,1.365c-3.394,2.397-5.628,5.899-8.485,8.799
			c-1.673,1.696-1.415,3.75-1.865,5.694c-0.218,0.94-0.382,1.903-0.456,2.865c-0.045,0.586,0.002,1.242,0.228,1.773
			c0.913,2.137,1.68,4.153,0.559,6.567c-0.878,1.889-0.984,4.139-1.875,6.019c-0.792,1.672-2.053,3.191-3.357,4.534
			c-1.314,1.351-2.938,2.4-4.359,3.65c2.656,2.171,3.269,4.887,2.078,7.242c-0.251,0.499-0.346,1.08-0.508,1.625
			c-0.817,2.731-3.292,3.625-5.439,4.853c-1.678,0.959-3.422,1.8-5.116,2.731c-0.279,0.154-0.424,0.538-0.684,0.749
			c-0.433,0.349-0.918,0.93-1.366,0.914c-2.276-0.075-3.792,1.494-5.545,2.473c-3.337,1.865-6.567,3.924-9.841,5.906
			c-0.716,0.434-1.48,0.812-2.121,1.342c-2.562,2.12-5.414,1.777-8.37,1.187c-2.19-0.438-4.422-0.688-6.643-0.954
			c-2.527-0.302-5.145-0.281-7.337-1.823c-1.39-0.977-2.649-2.134-4.012-3.152c-0.401-0.3-0.958-0.563-1.435-0.549
			c-0.869,0.024-1.732,0.277-2.6,0.42c-2.517,0.418-5.33-1.187-6.286-3.576c-0.513-1.282-1.146-1.615-2.348-0.847
			c-1.915,1.225-4.06,1.328-6.176,1.473c-0.809,0.056-1.668-0.474-2.488-0.78c-2.933-1.102-5.969-2.004-8.751-3.41
			c-2.001-1.01-4.05-2.518-3.394-5.356c0.457-1.979-0.989-2.866-2.116-3.741c-1.226-0.952-1.551-2.11-1.297-3.371
			c1.011-5.02,2.14-10.016,3.275-15.011c0.118-0.514,0.495-1.039,0.891-1.407c1.968-1.831,4.046-3.547,5.966-5.425
			c3.051-2.984,5.919-6.159,9.027-9.079c3.664-3.442,5.691-8.004,8.578-11.973c1.45-1.997,2.894-4.003,4.238-6.071
			c0.785-1.21,1.321-2.578,2.067-3.817c0.271-0.45,0.771-0.894,1.262-1.06c3.213-1.083,6.477-2.018,9.675-3.142
			c3.024-1.063,6.095-2.089,8.958-3.508c6.261-3.104,12.131-6.868,17.456-11.422c2.21-1.89,4.304-3.914,6.494-5.829
			c2.585-2.259,5.333-4.345,7.788-6.733c1.797-1.748,3.049-4.064,4.875-5.772c2.809-2.625,3.438-6.264,4.673-9.531
			c1.117-2.953,1.165-6.303,1.738-9.467c0.279-1.535,0.49-3.135,1.113-4.534c0.316-0.712,1.43-1.352,2.27-1.486
			c1.755-0.284,3.323-0.795,4.682-1.956c1.912-1.634,3.876-3.206,5.753-4.879c0.39-0.348,0.668-1.01,0.698-1.543
			c0.162-2.82,0.102-5.658,0.392-8.462c0.114-1.109,0.885-2.171,1.442-3.208c1.291-2.403,2.627-4.782,3.963-7.161
			c0.213-0.379,0.446-0.834,0.796-1.034c1.771-1.016,3.575-1.975,5.385-2.92c0.859-0.45,1.79-0.768,2.628-1.251
			c1.722-0.993,3.503-0.978,5.386-0.623c2.292,0.434,4.604,0.785,6.918,1.081c1.905,0.244,3.041,1.076,3.461,2.748
			c0.411,1.639-0.271,3.233-1.803,4.197c-0.182,0.113-0.376,0.205-0.54,0.295c1.584,2.557,0.504,5.347,0.95,8.013
			c1.104,0.547,2.131,0.524,3.236-0.275c1.574-1.139,3.358-1.998,4.874-3.201c1.44-1.142,2.973-0.842,4.376-0.454
			c1.383,0.382,2.54-0.035,3.69-0.421c1.222-0.408,2.164-0.152,3.087,0.549c0.981,0.745,1.914,1.557,2.895,2.305
			c0.198,0.149,0.541,0.244,0.774,0.188c4.215-1.009,6.334,0.609,6.493,4.567c1.278-1.114,2.763-2.445,4.289-3.725
			c3.126-2.617,3.889-6.47,4.914-10.045c0.608-2.122,0.021-4.563,0.135-6.854c0.157-3.145-2.185-4.948-3.668-7.215
			c-0.118-0.18-0.443-0.352-0.648-0.326c-2.057,0.252-3.623-0.742-5.158-1.905c-1.938-1.467-3.889-2.921-5.895-4.291
			c-0.466-0.317-1.188-0.405-1.776-0.367c-1.149,0.074-2.003-0.535-2.325-1.713c-0.165-0.601-0.443-1.216-0.822-1.709
			c-2.278-2.969-4.592-5.911-6.915-8.847c-1.037-1.311-0.903-2.886-1.035-4.393c-0.029-0.336,0.215-0.816,0.486-1.039
			c2.837-2.312,5.615-4.713,8.599-6.822c1.745-1.234,3.779-2.117,5.778-2.923c2.152-0.867,3.281-2.372,4.041-4.511
			c1.9-5.351,3.981-10.64,6.012-15.945c0.732-1.916-0.08-3.741-0.272-5.596c-0.287-2.748-0.838-5.473-1.055-8.224
			c-0.269-3.404-0.943-6.702-2.023-9.926c-0.575-1.718-0.568-2.358,0.172-3.983c-2.172-0.67-2.772-2.82-4.095-4.314
			c-2.804-3.167-3.188-7.289-4.5-11.039c-0.205-0.584,0.11-1.352,0.201-2.187c-4.032-0.356-5.461-3.888-7.535-6.72
			c-1.036-1.416-2.195-2.745-3.196-4.185c-0.824-1.185-1.453-2.503-2.244-3.713c-1.685-2.575-3.304-5.205-5.161-7.653
			c-2.14-2.822-4.527-5.456-6.763-8.208c-0.868-1.069-1.69-2.195-2.386-3.381C3822.534,37.175,3823.267,35.398,3824.746,34.092z
			 M3819.63,186.716c-1.187-0.242-2.201-0.383-3.173-0.663c-1.31-0.379-2.476-0.234-3.674,0.447
			c-1.915,1.085-3.905,2.037-5.845,3.08c-0.326,0.176-0.628,0.489-0.819,0.812c-0.972,1.632-1.961,3.257-2.833,4.94
			c-0.756,1.465-1.854,2.779-1.87,4.587c-0.021,2.603-0.106,5.209-0.309,7.803c-0.067,0.864-0.33,1.97-0.921,2.495
			c-2.633,2.339-5.37,4.569-8.171,6.707c-0.937,0.714-2.136,1.154-3.279,1.509c-1.732,0.536-1.978,0.776-2.186,2.544
			c-0.598,5.072-0.985,10.195-3.411,14.854c-1.11,2.134-2.123,4.319-3.287,6.423c-0.395,0.712-1.103,1.261-1.694,1.856
			c-3.136,3.156-6.2,6.39-9.452,9.422c-1.991,1.857-4.318,3.348-6.416,5.097c-2.74,2.286-5.234,4.906-8.142,6.943
			c-3.817,2.674-7.848,5.085-11.951,7.301c-3.588,1.938-7.252,3.791-11.316,4.687c-1.751,0.385-3.369,1.366-5.115,1.79
			c-1.912,0.463-3.136,1.41-4.216,3.113c-3.164,4.996-6.586,9.827-9.912,14.719c-0.889,1.306-1.644,2.746-2.729,3.863
			c-2.695,2.771-5.549,5.389-8.334,8.073c-2.283,2.203-4.63,4.348-6.802,6.656c-0.818,0.869-1.479,2.062-1.771,3.217
			c-0.776,3.08-1.285,6.228-1.954,9.335c-0.354,1.649-0.056,2.66,1.466,3.487c1.043,0.566,1.425,1.396,1.486,2.463
			c0.043,0.751,0.09,1.514,0.003,2.255c-0.146,1.257,0.505,1.86,1.568,2.26c1.607,0.606,3.217,1.212,4.792,1.897
			c3.023,1.314,5.987,2.006,9.084,0.091c1.32-0.815,2.849-0.931,4.259,0.044c1.197,0.828,2.407,1.602,3.014,3.06
			c0.501,1.204,1.385,1.544,2.778,1.191c1.465-0.37,3.046-0.413,4.568-0.365c0.653,0.021,1.585,0.471,1.876,1.006
			c0.919,1.688,2.512,2.526,3.956,3.556c0.476,0.34,1.09,0.567,1.671,0.664c4.118,0.693,8.341,0.561,12.422,1.661
			c0.805,0.217,1.942-0.18,2.732-0.632c2.728-1.561,5.351-3.304,8.049-4.915c2.86-1.708,5.734-3.398,8.655-5
			c2.911-1.597,5.881-3.087,8.838-4.599c1.863-0.954,3.468-2.14,3.852-4.356c0.07-0.404-0.134-1.073-0.443-1.289
			c-1.59-1.116-2.33-4.499-1.072-6.004c1.32-1.581,2.901-2.943,4.233-4.516c1.089-1.285,2.198-2.638,2.897-4.146
			c0.787-1.699,1.016-3.649,1.7-5.407c0.425-1.091,0.035-1.938-0.235-2.887c-0.303-1.069-0.856-2.178-0.77-3.224
			c0.198-2.403,0.664-4.791,1.135-7.163c0.233-1.178,0.468-2.483,1.138-3.42c1.398-1.955,3.096-3.696,4.65-5.541
			c0.704-0.837,1.27-1.812,2.061-2.55c1.279-1.191,2.659-2.283,4.059-3.336c1.567-1.181,3.156-2.351,4.825-3.378
			c1.757-1.082,3.778-1.785,5.405-3.021c3.382-2.569,7.235-2.501,11.09-2.299c2.039,0.107,3.859,0.022,5.325-1.54
			c0.213-0.229,0.441-0.627,0.377-0.87c-0.056-0.206-0.519-0.406-0.813-0.428c-2.679-0.2-5.915-3.151-6.153-5.804
			c-0.18-2.006-0.259-4.035-0.165-6.044c0.031-0.67,0.599-1.476,1.155-1.931c1.686-1.376,3.508-2.582,5.236-3.909
			c2.666-2.045,5.348-4.076,7.916-6.239c0.834-0.702,1.492-1.723,1.962-2.724c1.613-3.443,1.907-7.514,5.077-10.221
			c0.914-0.781,1.433-2.021,2.332-2.828c1.496-1.343,2.112-3.533,4.189-4.301c0.138-0.051,0.215-0.271,0.316-0.417
			c1.081-1.557,2.296-3.04,3.183-4.7c0.438-0.818,0.564-2.045,0.314-2.944c-0.696-2.499-1.718-4.904-2.506-7.38
			c-0.688-2.161-0.181-3.373,1.718-4.635c0.331-0.219,0.695-0.388,1.018-0.619c1.38-0.991,2.841-1.899,4.075-3.05
			c0.431-0.4,0.293-1.409,0.414-2.142c-0.598,0.102-1.29,0.042-1.777,0.33c-2.357,1.391-3.842,0.874-4.576-1.695
			c-0.445-1.562-1.782-1.97-2.986-0.912c-1.271,1.118-2.581,1.179-3.966,0.166c-0.742-0.542-1.444-0.674-2.269-0.095
			c-1.082,0.76-2.309,1.326-3.335,2.149c-2.076,1.67-4.339,1.91-6.86,1.386c-2.86-0.594-3.565-1.347-3.568-4.28
			c-0.001-1.248,0-2.496,0-3.801c-0.272,0.087-0.358,0.104-0.433,0.142c-1.678,0.845-3.068,0.661-3.927-0.522
			c-1.162-1.603-1.488-5.078-0.532-6.003c0.242-0.235,0.59-0.377,0.911-0.51C3818.092,187.276,3818.757,187.044,3819.63,186.716z
			 M3862.021,93.293c0.056,0.248,0.108,0.581,0.204,0.902c1.003,3.367,1.941,6.731,1.978,10.301
			c0.021,2.055,0.315,4.113,0.601,6.154c0.274,1.962,0.769,3.893,1.021,5.854c0.119,0.931,0.115,1.985-0.203,2.846
			c-2.388,6.441-4.823,12.866-7.363,19.249c-0.411,1.031-1.28,2.005-2.177,2.691c-1.249,0.955-2.659,1.775-4.115,2.371
			c-3.791,1.552-6.834,4.145-9.901,6.732c-1.286,1.085-1.297,1.643-0.103,2.874c0.98,1.011,1.917,2.07,2.799,3.168
			c1.074,1.336,1.855,2.998,3.144,4.054c3.204,2.625,6.601,5.019,9.979,7.424c0.624,0.444,1.565,0.791,2.285,0.684
			c1.512-0.228,2.577,0.269,3.485,1.367c0.533,0.646,1.162,1.238,1.567,1.957c1.377,2.435,3.771,4.178,3.605,7.617
			c-0.204,4.246,0.466,8.49-1.263,12.63c-1.348,3.226-2.464,6.491-5.317,8.813c-1.212,0.985-2.222,2.234-3.25,3.426
			c-0.87,1.008-0.737,2.505,0.172,2.818c1.595,0.55,3.196,1.082,4.798,1.608c0.2,0.065,0.426,0.077,0.641,0.075
			c2.628-0.006,3.495,0.621,4.257,3.192c0.265,0.896,0.775,1.32,1.716,1.293c0.435-0.012,0.871,0.15,1.307,0.15
			c1.819,0.005,3.679,0.638,5.444-0.182c0.969-0.448,1.855-1.076,2.77-1.639c1.856-1.143,4.042-1.85,5.286-3.816
			c0.652-1.035,1.162-2.161,1.783-3.217c1.555-2.646,3.021-5.353,4.736-7.89c2.263-3.349,3.579-7.597,8.037-8.989
			c1.206-0.376,1.396-1.289,1.347-2.352c-0.017-0.352-0.084-0.701-0.129-1.052c-0.277-2.193,0.147-4.161,1.611-5.919
			c1.008-1.211,1.842-2.569,2.724-3.883c0.645-0.961,1.391-1.896,1.82-2.951c0.562-1.376,0.777-2.889,1.286-4.29
			c0.493-1.36,0.362-2.544-0.259-3.847c-0.696-1.46-1.152-3.04-1.664-4.584c-0.325-0.982-0.021-1.808,0.797-2.459
			c1.233-0.985,2.404-2.053,3.686-2.971c1.703-1.222,3.344-2.812,5.269-3.382c3.038-0.899,6.279-1.168,9.456-1.538
			c1.819-0.212,3.73-0.229,4.26,2.254c0.056,0.256,0.629,0.594,0.911,0.553c0.244-0.037,0.566-0.544,0.597-0.867
			c0.224-2.412,0.539-4.831,0.513-7.245c-0.021-1.896,0.932-3.148,2.348-3.825c4.463-2.132,5.234-6.054,5.372-10.339
			c0.076-2.417-0.039-4.841,0.098-7.251c0.051-0.885,0.477-1.8,0.917-2.599c1.039-1.883,2.184-3.707,3.297-5.551
			c0.513-0.848,0.409-1.572-0.344-2.229c-1.028-0.898-2.118-1.745-3.036-2.748c-0.952-1.041-1.971-1.304-3.313-0.983
			c-2.703,0.645-5.416,1.256-8.148,1.751c-1.062,0.193-1.683,0.568-1.871,1.663c-0.315,1.84-1.471,2.806-3.294,3.131
			c-1.778,0.317-3.549,0.702-5.301,1.15c-2.551,0.652-4.932,0.313-7.318-0.779c-2.358-1.08-4.804-1.977-7.232-2.895
			c-3.379-1.276-6.763-2.546-10.175-3.728c-1.905-0.659-2.719-1.911-3.047-3.875c-0.694-4.135-1.585-8.239-2.477-12.337
			c-0.384-1.764-1.065-3.466-1.431-5.233c-0.199-0.965-0.689-1.422-1.505-1.8c-0.791-0.366-1.733-0.702-2.234-1.343
			c-1.217-1.558-2.386-3.203-3.246-4.972c-0.619-1.267-1.525-1.477-2.826-1.719c0.111,0.917,0.221,1.685,0.294,2.457
			c0.292,3.017,0.523,6.04,0.875,9.05c0.206,1.774-0.137,3.062-1.201,3.622c-1.208,0.633-2.616,0.265-3.925-1.05
			c-1.618-1.625-3.308-3.188-4.812-4.914c-1.313-1.508-2.995-2.806-3.364-4.981c-0.244-1.438-0.515-2.876-0.865-4.292
			c-0.323-1.301-0.106-2.4,0.713-3.478c0.976-1.286,0.637-2.036-0.483-3.165c-2.147-2.163-4.765-3.938-6.013-6.896
			c-0.65-1.538-1.443-3.021-1.992-4.59c-0.337-0.964-0.087-2.2,0.928-2.504c1.769-0.53,1.524-1.557,1.138-2.814
			c-0.154-0.505-0.18-1.047-0.313-1.559c-0.529-2.036-0.912-4.131-1.672-6.079c-0.613-1.576-1.688-2.974-2.58-4.49
			c-1.182,0.571-2.432,0.808-3.577-0.101c-1.45-1.149-2.811-2.411-4.268-3.55c-0.979-0.768-1.762-1.738-3.207-1.941
			c-3.14-0.44-6.253-1.096-9.355-1.766c-0.776-0.166-1.693-0.537-2.164-1.122c-2.788-3.464-5.464-7.018-8.185-10.537
			c-0.144-0.187-0.348-0.454-0.531-0.459c-1.304-0.04-2.608-0.021-3.737-0.021c2.86,3.798,5.689,7.541,8.505,11.295
			c1.846,2.465,1.842,3.246-0.131,5.357c-0.52,0.556-0.504,0.89,0.014,1.415c1.359,1.384,2.78,2.729,3.966,4.256
			c2.535,3.265,4.985,6.598,7.376,9.972c1.897,2.678,3.65,5.458,5.474,8.191c1.272,1.908,2.537,3.823,3.833,5.715
			c0.912,1.331,1.494,1.317,2.322,0.013c0.771-1.217,1.966-1.585,3.326-1.025c2.74,1.129,4.349,3.906,3.949,6.79
			c-0.177,1.276-0.754,2.149-2.136,2.309c-0.467,0.055-0.928,0.168-1.33,0.243c0.464,3.403,1.946,6.282,3.931,9.011
			c0.836,1.15,1.405,1.743,2.917,1.328c1.545-0.425,3.438,0.816,4.064,2.311c0.58,1.384,0.201,2.821-1.121,3.726
			C3863.507,92.875,3862.785,93.005,3862.021,93.293z"/>
		<path fill-rule="evenodd" d="M3712.97,370.767c-1.139-0.116-2.285-0.178-3.413-0.36c-1.791-0.289-2.73-1.649-2.062-3.378
			c1.081-2.796,1.811-5.814,4.262-7.905c0.335-0.285,0.532-0.898,0.544-1.366c0.033-1.407-0.075-2.817-0.097-4.228
			c-0.051-3.243,2.858-4.501,5.264-3.912c2.21,0.541,4.315,1.541,6.424,2.442c1.729,0.739,1.635,2.571,2.151,4.021
			c0.11,0.312,0.009,0.815,0.205,0.96c2.626,1.942,2.32,4.616,1.807,7.296c-0.103,0.535-0.584,1.181-1.067,1.428
			c-1.43,0.732-2.901,1.561-4.448,1.834c-1.253,0.222-2.26,0.573-3.092,1.465c-1.338,1.435-3.104,1.504-4.872,1.585
			c-0.53,0.023-1.062,0.003-1.593,0.003C3712.978,370.689,3712.973,370.729,3712.97,370.767z M3711.364,367.589
			c1.96,0.174,3.347,0.344,4.506-0.953c1.073-1.201,2.418-1.938,4.149-1.979c0.873-0.021,1.821-0.369,2.582-0.826
			c1.048-0.63,0.965-1.302-0.147-1.772c-0.957-0.405-1.47-1.075-1.666-2.051c-0.062-0.303-0.253-0.629-0.19-0.899
			c0.442-1.904-0.698-2.625-2.233-3.01c-0.819-0.205-1.673-0.273-2.511-0.403c-0.02,0.811-0.099,1.624-0.047,2.431
			c0.117,1.879,0.132,3.603-1.434,5.119C3713.219,364.362,3712.489,365.921,3711.364,367.589z"/>
		<path fill-rule="evenodd" fill="#FFFFFF" d="M3819.63,186.716c-0.873,0.328-1.538,0.561-2.188,0.828
			c-0.321,0.133-0.669,0.274-0.911,0.51c-0.956,0.925-0.63,4.4,0.532,6.003c0.858,1.184,2.249,1.367,3.927,0.522
			c0.074-0.038,0.16-0.055,0.433-0.142c0,1.305-0.001,2.553,0,3.801c0.003,2.934,0.708,3.687,3.568,4.28
			c2.521,0.524,4.784,0.284,6.86-1.386c1.026-0.823,2.253-1.39,3.335-2.149c0.824-0.579,1.526-0.447,2.269,0.095
			c1.385,1.013,2.694,0.952,3.966-0.166c1.204-1.058,2.541-0.649,2.986,0.912c0.734,2.569,2.219,3.086,4.576,1.695
			c0.487-0.288,1.18-0.229,1.777-0.33c-0.121,0.732,0.017,1.741-0.414,2.142c-1.234,1.15-2.695,2.059-4.075,3.05
			c-0.322,0.231-0.687,0.4-1.018,0.619c-1.898,1.262-2.405,2.474-1.718,4.635c0.788,2.476,1.81,4.881,2.506,7.38
			c0.25,0.899,0.123,2.126-0.314,2.944c-0.887,1.66-2.102,3.144-3.183,4.7c-0.102,0.146-0.179,0.366-0.316,0.417
			c-2.077,0.768-2.693,2.958-4.189,4.301c-0.899,0.808-1.418,2.047-2.332,2.828c-3.17,2.707-3.464,6.777-5.077,10.221
			c-0.47,1.001-1.128,2.021-1.962,2.724c-2.568,2.163-5.25,4.194-7.916,6.239c-1.729,1.327-3.551,2.533-5.236,3.909
			c-0.557,0.455-1.124,1.261-1.155,1.931c-0.094,2.009-0.015,4.038,0.165,6.044c0.238,2.652,3.475,5.604,6.153,5.804
			c0.295,0.021,0.758,0.222,0.813,0.428c0.064,0.243-0.164,0.642-0.377,0.87c-1.466,1.562-3.286,1.647-5.325,1.54
			c-3.854-0.202-7.708-0.271-11.09,2.299c-1.627,1.235-3.648,1.938-5.405,3.021c-1.669,1.027-3.258,2.197-4.825,3.378
			c-1.399,1.053-2.779,2.145-4.059,3.336c-0.791,0.737-1.356,1.713-2.061,2.55c-1.555,1.845-3.252,3.586-4.65,5.541
			c-0.67,0.937-0.904,2.242-1.138,3.42c-0.471,2.372-0.937,4.76-1.135,7.163c-0.087,1.046,0.467,2.154,0.77,3.224
			c0.271,0.948,0.66,1.796,0.235,2.887c-0.685,1.758-0.913,3.708-1.7,5.407c-0.699,1.508-1.809,2.86-2.897,4.146
			c-1.332,1.572-2.913,2.935-4.233,4.516c-1.258,1.505-0.518,4.888,1.072,6.004c0.31,0.216,0.514,0.885,0.443,1.289
			c-0.384,2.217-1.988,3.402-3.852,4.356c-2.957,1.512-5.927,3.002-8.838,4.599c-2.921,1.602-5.795,3.292-8.655,5
			c-2.698,1.611-5.321,3.354-8.049,4.915c-0.79,0.452-1.928,0.849-2.732,0.632c-4.081-1.101-8.304-0.968-12.422-1.661
			c-0.581-0.097-1.195-0.324-1.671-0.664c-1.444-1.029-3.037-1.868-3.956-3.556c-0.291-0.535-1.223-0.985-1.876-1.006
			c-1.522-0.048-3.104-0.005-4.568,0.365c-1.394,0.353-2.277,0.013-2.778-1.191c-0.606-1.458-1.816-2.231-3.014-3.06
			c-1.41-0.975-2.938-0.859-4.259-0.044c-3.097,1.915-6.061,1.224-9.084-0.091c-1.575-0.686-3.185-1.291-4.792-1.897
			c-1.063-0.399-1.714-1.003-1.568-2.26c0.087-0.741,0.04-1.504-0.003-2.255c-0.062-1.067-0.443-1.896-1.486-2.463
			c-1.521-0.827-1.82-1.838-1.466-3.487c0.669-3.107,1.178-6.255,1.954-9.335c0.292-1.155,0.953-2.348,1.771-3.217
			c2.172-2.309,4.519-4.453,6.802-6.656c2.785-2.685,5.639-5.302,8.334-8.073c1.085-1.117,1.84-2.558,2.729-3.863
			c3.326-4.892,6.748-9.723,9.912-14.719c1.08-1.703,2.304-2.65,4.216-3.113c1.746-0.424,3.364-1.405,5.115-1.79
			c4.064-0.896,7.729-2.749,11.316-4.687c4.104-2.216,8.134-4.627,11.951-7.301c2.907-2.037,5.401-4.657,8.142-6.943
			c2.098-1.749,4.425-3.239,6.416-5.097c3.252-3.032,6.316-6.266,9.452-9.422c0.592-0.596,1.3-1.145,1.694-1.856
			c1.164-2.104,2.177-4.289,3.287-6.423c2.426-4.658,2.813-9.781,3.411-14.854c0.208-1.768,0.453-2.008,2.186-2.544
			c1.144-0.354,2.343-0.795,3.279-1.509c2.801-2.138,5.538-4.368,8.171-6.707c0.591-0.525,0.854-1.631,0.921-2.495
			c0.202-2.594,0.287-5.2,0.309-7.803c0.017-1.808,1.114-3.122,1.87-4.587c0.872-1.684,1.861-3.309,2.833-4.94
			c0.191-0.322,0.493-0.636,0.819-0.812c1.939-1.043,3.93-1.995,5.845-3.08c1.198-0.682,2.364-0.826,3.674-0.447
			C3817.429,186.333,3818.443,186.474,3819.63,186.716z"/>
		<path fill-rule="evenodd" fill="#FFFFFF" d="M3862.021,93.293c0.764-0.288,1.485-0.418,2.037-0.796
			c1.322-0.905,1.701-2.342,1.121-3.726c-0.627-1.495-2.52-2.736-4.064-2.311c-1.512,0.415-2.081-0.178-2.917-1.328
			c-1.984-2.729-3.467-5.608-3.931-9.011c0.402-0.075,0.863-0.188,1.33-0.243c1.382-0.16,1.959-1.033,2.136-2.309
			c0.399-2.883-1.209-5.661-3.949-6.79c-1.36-0.56-2.556-0.192-3.326,1.025c-0.828,1.305-1.41,1.318-2.322-0.013
			c-1.296-1.892-2.561-3.807-3.833-5.715c-1.823-2.733-3.576-5.513-5.474-8.191c-2.391-3.374-4.841-6.707-7.376-9.972
			c-1.186-1.526-2.606-2.872-3.966-4.256c-0.518-0.525-0.533-0.859-0.014-1.415c1.973-2.111,1.977-2.892,0.131-5.357
			c-2.815-3.754-5.645-7.497-8.505-11.295c1.129,0,2.434-0.019,3.737,0.021c0.184,0.005,0.388,0.272,0.531,0.459
			c2.721,3.519,5.396,7.073,8.185,10.537c0.471,0.585,1.388,0.956,2.164,1.122c3.103,0.669,6.216,1.326,9.355,1.766
			c1.445,0.203,2.228,1.174,3.207,1.941c1.457,1.14,2.817,2.401,4.268,3.55c1.146,0.908,2.396,0.671,3.577,0.101
			c0.892,1.516,1.967,2.914,2.58,4.49c0.76,1.948,1.143,4.043,1.672,6.079c0.134,0.511,0.159,1.054,0.313,1.559
			c0.387,1.257,0.631,2.284-1.138,2.814c-1.015,0.304-1.265,1.54-0.928,2.504c0.549,1.57,1.342,3.053,1.992,4.59
			c1.248,2.958,3.865,4.733,6.013,6.896c1.12,1.128,1.459,1.879,0.483,3.165c-0.819,1.078-1.036,2.177-0.713,3.478
			c0.351,1.416,0.621,2.854,0.865,4.292c0.369,2.176,2.051,3.474,3.364,4.981c1.505,1.726,3.194,3.289,4.812,4.914
			c1.309,1.314,2.717,1.683,3.925,1.05c1.064-0.559,1.407-1.848,1.201-3.622c-0.352-3.01-0.583-6.033-0.875-9.05
			c-0.073-0.772-0.183-1.541-0.294-2.457c1.301,0.242,2.207,0.452,2.826,1.719c0.86,1.769,2.029,3.414,3.246,4.972
			c0.501,0.641,1.443,0.977,2.234,1.343c0.815,0.377,1.306,0.834,1.505,1.8c0.365,1.768,1.047,3.469,1.431,5.233
			c0.892,4.099,1.782,8.202,2.477,12.337c0.328,1.964,1.142,3.216,3.047,3.875c3.412,1.182,6.796,2.451,10.175,3.728
			c2.429,0.918,4.874,1.814,7.232,2.895c2.387,1.093,4.768,1.432,7.318,0.779c1.752-0.448,3.522-0.833,5.301-1.15
			c1.823-0.325,2.979-1.291,3.294-3.131c0.188-1.095,0.81-1.47,1.871-1.663c2.732-0.495,5.445-1.106,8.148-1.751
			c1.343-0.32,2.361-0.058,3.313,0.983c0.918,1.003,2.008,1.85,3.036,2.748c0.753,0.656,0.856,1.381,0.344,2.229
			c-1.113,1.844-2.258,3.668-3.297,5.551c-0.44,0.799-0.866,1.714-0.917,2.599c-0.137,2.41-0.021,4.834-0.098,7.251
			c-0.138,4.285-0.909,8.207-5.372,10.339c-1.416,0.677-2.368,1.929-2.348,3.825c0.026,2.414-0.289,4.833-0.513,7.245
			c-0.03,0.323-0.353,0.83-0.597,0.867c-0.282,0.041-0.855-0.297-0.911-0.553c-0.529-2.483-2.44-2.466-4.26-2.254
			c-3.177,0.37-6.418,0.639-9.456,1.538c-1.925,0.57-3.565,2.16-5.269,3.382c-1.281,0.918-2.452,1.985-3.686,2.971
			c-0.817,0.651-1.122,1.477-0.797,2.459c0.512,1.544,0.968,3.124,1.664,4.584c0.621,1.303,0.752,2.486,0.259,3.847
			c-0.509,1.401-0.724,2.914-1.286,4.29c-0.43,1.056-1.176,1.99-1.82,2.951c-0.882,1.313-1.716,2.672-2.724,3.883
			c-1.464,1.758-1.889,3.726-1.611,5.919c0.045,0.351,0.112,0.7,0.129,1.052c0.049,1.062-0.141,1.976-1.347,2.352
			c-4.458,1.393-5.774,5.641-8.037,8.989c-1.715,2.537-3.182,5.244-4.736,7.89c-0.621,1.056-1.131,2.182-1.783,3.217
			c-1.244,1.967-3.43,2.674-5.286,3.816c-0.914,0.562-1.801,1.19-2.77,1.639c-1.766,0.819-3.625,0.187-5.444,0.182
			c-0.436,0-0.872-0.162-1.307-0.15c-0.94,0.027-1.451-0.397-1.716-1.293c-0.762-2.571-1.629-3.198-4.257-3.192
			c-0.215,0.002-0.44-0.01-0.641-0.075c-1.602-0.526-3.203-1.059-4.798-1.608c-0.909-0.313-1.042-1.811-0.172-2.818
			c1.028-1.191,2.038-2.44,3.25-3.426c2.854-2.322,3.97-5.588,5.317-8.813c1.729-4.14,1.059-8.384,1.263-12.63
			c0.166-3.439-2.229-5.183-3.605-7.617c-0.405-0.719-1.034-1.312-1.567-1.957c-0.908-1.099-1.974-1.595-3.485-1.367
			c-0.72,0.107-1.661-0.239-2.285-0.684c-3.378-2.405-6.774-4.799-9.979-7.424c-1.288-1.056-2.069-2.718-3.144-4.054
			c-0.882-1.098-1.818-2.157-2.799-3.168c-1.194-1.231-1.184-1.789,0.103-2.874c3.067-2.588,6.11-5.181,9.901-6.732
			c1.456-0.596,2.866-1.416,4.115-2.371c0.896-0.687,1.766-1.66,2.177-2.691c2.54-6.383,4.976-12.808,7.363-19.249
			c0.318-0.86,0.322-1.915,0.203-2.846c-0.252-1.962-0.746-3.893-1.021-5.854c-0.285-2.041-0.58-4.1-0.601-6.154
			c-0.036-3.57-0.975-6.935-1.978-10.301C3862.13,93.874,3862.077,93.541,3862.021,93.293z"/>
		<path fill-rule="evenodd" fill="#FFFFFF" d="M3711.364,367.589c1.125-1.668,1.854-3.227,3.009-4.345
			c1.565-1.517,1.551-3.24,1.434-5.119c-0.052-0.807,0.027-1.62,0.047-2.431c0.838,0.13,1.691,0.198,2.511,0.403
			c1.535,0.385,2.676,1.105,2.233,3.01c-0.062,0.271,0.129,0.597,0.19,0.899c0.196,0.976,0.709,1.646,1.666,2.051
			c1.112,0.471,1.195,1.143,0.147,1.772c-0.761,0.457-1.709,0.806-2.582,0.826c-1.731,0.041-3.076,0.778-4.149,1.979
			C3714.711,367.933,3713.324,367.763,3711.364,367.589z"/>
	</g>
</g>
</svg>
